<svg xmlns="http://www.w3.org/2000/svg" xmlns:xlink="http://www.w3.org/1999/xlink" width="22.80078125" height="19.601531982421875" viewBox="0 0 22.80078125 19.601531982421875" fill="none">
<path d="M3.59462 8.81048L11.4187 16.6346L19.2428 8.81048C19.9346 8.11874 20.3232 7.18052 20.3232 6.20225C20.3232 5.22397 19.9346 4.28576 19.2428 3.59401C18.9003 3.25149 18.4937 2.97979 18.0462 2.79442C17.5986 2.60905 17.119 2.51364 16.6346 2.51364C15.6563 2.51364 14.7181 2.90226 14.0263 3.59401L11.4187 6.20163L8.8111 3.59524C8.11759 2.91277 7.1825 2.53199 6.20951 2.53584C5.23653 2.53968 4.30448 2.92785 3.61639 3.61577C2.92829 4.3037 2.53991 5.23566 2.53583 6.20865C2.53176 7.18163 2.91232 8.11681 3.59462 8.81048ZM10.5495 1.85436L11.4187 2.72357L12.2879 1.85436C12.8578 1.27944 13.5357 0.822752 14.2826 0.510507C15.0294 0.198261 15.8306 0.0366123 16.6402 0.0348396C17.4497 0.033067 18.2516 0.191206 18.9998 0.500177C19.7481 0.809148 20.4279 1.26287 21.0003 1.83528C21.5727 2.4077 22.0265 3.08755 22.3354 3.83578C22.6444 4.58402 22.8025 5.38592 22.8008 6.19544C22.799 7.00496 22.6373 7.80616 22.3251 8.55304C22.0128 9.29991 21.5562 9.97776 20.9812 10.5477L12.2892 19.241C12.175 19.3553 12.0394 19.446 11.8901 19.5078C11.7409 19.5697 11.5809 19.6016 11.4193 19.6016C11.2578 19.6016 11.0978 19.5697 10.9485 19.5078C10.7993 19.446 10.6637 19.3553 10.5495 19.241L1.85621 10.5489C1.27347 9.98083 0.80933 9.3027 0.490713 8.55385C0.172096 7.80501 0.00534413 7.00035 0.000129998 6.18655C-0.00508413 5.37276 0.151343 4.56603 0.460339 3.81316C0.769334 3.06029 1.22475 2.37627 1.80016 1.80078C2.37557 1.22529 3.05952 0.769778 3.81235 0.460676C4.56517 0.151575 5.37188 -0.00496691 6.18568 0.000132118C6.99947 0.00523115 7.80415 0.171869 8.55305 0.49038C9.30194 0.808891 9.98013 1.27294 10.5483 1.85559L10.5495 1.85436Z"   fill="#7C7C7C" >
</path>
</svg>
