<svg xmlns="http://www.w3.org/2000/svg" xmlns:xlink="http://www.w3.org/1999/xlink" width="8.7999267578125" height="14.399993896484375" viewBox="0 0 8.7999267578125 14.399993896484375" fill="none">
<path     fill="#181725"  d="M0.539451 1.96842C0.342319 1.76842 0.232801 1.50526 0.243753 1.23158C0.243753 0.957893 0.353271 0.705261 0.561355 0.505261C0.758485 0.315787 1.03228 0.199998 1.31703 0.199998C1.60177 0.199998 1.87557 0.294735 2.08365 0.484209L8.28234 6.4421C8.38091 6.53684 8.45757 6.65263 8.51233 6.77894C8.56709 6.90526 8.59994 7.0421 8.59994 7.17894C8.59994 7.31579 8.56709 7.45263 8.51233 7.58947C8.45757 7.71579 8.38091 7.83158 8.28234 7.92631L2.08365 13.8842C1.98508 13.9789 1.86461 14.0632 1.73319 14.1158C1.59082 14.1684 1.44845 14.2 1.30608 14.2C1.1637 14.2 1.01038 14.1789 0.878956 14.1263C0.747535 14.0737 0.627066 13.9895 0.517549 13.8947C0.418983 13.8 0.34232 13.6737 0.287561 13.5474C0.22185 13.4211 0.199947 13.2842 0.199947 13.1368C0.199947 13 0.232802 12.8632 0.287561 12.7368C0.34232 12.6105 0.429935 12.4947 0.539452 12.3895L5.96057 7.17894L4.93111 6.2L0.539451 1.96842Z">
</path>
<path fill-rule="evenodd"  fill="rgba(24, 23, 37, 1)"  d="M0.0437593 1.22759Q0.0251265 1.73152 0.397012 2.10882L0.398822 2.11065L4.79329 6.34493L5.67115 7.17972L0.400858 12.2453Q0.198255 12.44 0.104062 12.6573Q-5.24521e-05 12.8975 -5.24521e-05 13.1368Q-5.24521e-05 13.4234 0.106785 13.6332Q0.21594 13.8822 0.378956 14.0389L0.382737 14.0426L0.386703 14.046Q0.598998 14.2296 0.804601 14.312Q1.02439 14.4 1.30608 14.4Q1.54118 14.4 1.80254 14.3034L1.80506 14.3024L1.80755 14.3015Q2.03145 14.2118 2.22224 14.0284L8.42094 8.07051Q8.59381 7.90434 8.69583 7.66902L8.69696 7.66641L8.69802 7.66377Q8.79994 7.40905 8.79994 7.17894Q8.79994 6.93956 8.69583 6.6994Q8.59381 6.46407 8.42094 6.29791L2.2203 0.338145L2.2183 0.336329Q1.84894 -2.86102e-06 1.31702 -1.90735e-06Q0.798419 -9.53674e-07 0.422762 0.361067Q0.045248 0.723915 0.0437593 1.22759ZM0.243753 1.23158C0.232801 1.50526 0.342319 1.76842 0.539451 1.96842L4.93111 6.2L5.81549 7.04098L5.96057 7.17894L5.81623 7.31768L0.539452 12.3895C0.429935 12.4947 0.34232 12.6105 0.287561 12.7368C0.232802 12.8632 0.199947 13 0.199947 13.1368C0.199947 13.2842 0.22185 13.4211 0.287561 13.5474C0.34232 13.6737 0.418983 13.8 0.517549 13.8947C0.627066 13.9895 0.747535 14.0737 0.878956 14.1263C1.01038 14.1789 1.1637 14.2 1.30608 14.2C1.44845 14.2 1.59082 14.1684 1.73319 14.1158C1.86461 14.0632 1.98508 13.9789 2.08365 13.8842L8.28234 7.92631C8.38091 7.83158 8.45757 7.71579 8.51233 7.58947C8.56709 7.45263 8.59994 7.31579 8.59994 7.17894C8.59994 7.0421 8.56709 6.90526 8.51233 6.77894C8.45757 6.65263 8.38091 6.53684 8.28234 6.4421L2.08365 0.484209C1.87557 0.294735 1.60177 0.199998 1.31703 0.199998C1.03228 0.199998 0.758485 0.315787 0.561355 0.505261C0.353271 0.705261 0.243753 0.957893 0.243753 1.23158Z">
</path>
</svg>
