<svg xmlns="http://www.w3.org/2000/svg" xmlns:xlink="http://www.w3.org/1999/xlink" width="18.205322265625" height="18.205322265625" viewBox="0 0 18.205322265625 18.205322265625" fill="none">
<path d="M8.0005 14.0005C8.78843 14.0005 9.56865 13.8453 10.2966 13.5437C11.0246 13.2422 11.686 12.8003 12.2431 12.2431C12.8003 11.686 13.2423 11.0245 13.5438 10.2966C13.8453 9.56862 14.0005 8.7884 14.0005 8.00047C14.0005 7.21254 13.8453 6.43233 13.5438 5.70437C13.2423 4.97642 12.8003 4.31498 12.2431 3.75783C11.686 3.20068 11.0246 2.75872 10.2966 2.4572C9.56865 2.15567 8.78843 2.00047 8.0005 2.00047C6.4092 2.00047 4.88308 2.63261 3.75786 3.75783C2.63264 4.88305 2.0005 6.40917 2.0005 8.00047C2.0005 9.59177 2.63264 11.1179 3.75786 12.2431C4.88308 13.3683 6.4092 14.0005 8.0005 14.0005ZM14.3205 12.9065L17.9005 16.4865C17.9959 16.5788 18.072 16.6892 18.1244 16.8112C18.1767 16.9333 18.2042 17.0645 18.2052 17.1973C18.2063 17.3301 18.1809 17.4617 18.1305 17.5846C18.0802 17.7074 18.0058 17.819 17.9119 17.9129C17.8179 18.0067 17.7062 18.0809 17.5833 18.1311C17.4604 18.1813 17.3287 18.2065 17.1959 18.2052C17.0631 18.204 16.9319 18.1763 16.8099 18.1238C16.688 18.0713 16.5777 17.995 16.4855 17.8995L12.9055 14.3195C11.298 15.5673 9.2753 16.1556 7.24926 15.9647C5.22322 15.7737 3.34611 14.8178 2.00005 13.2915C0.654 11.7653 -0.0598121 9.78342 0.00392902 7.7494C0.0676701 5.71537 0.904173 3.7821 2.34315 2.34312C3.78213 0.904142 5.7154 0.0676396 7.74943 0.0038985C9.78345 -0.0598426 11.7653 0.653969 13.2916 2.00002C14.8178 3.34608 15.7737 5.22319 15.9647 7.24923C16.1557 9.27527 15.5674 11.2979 14.3195 12.9055L14.3205 12.9065Z"   fill="#181B19" >
</path>
</svg>
