<svg xmlns="http://www.w3.org/2000/svg" xmlns:xlink="http://www.w3.org/1999/xlink" width="15.132080078125" height="18.1666259765625" viewBox="0 0 15.132080078125 18.1666259765625" fill="none">
<path d="M10.5462 0.612532C9.63108 0.217352 8.64608 0.00938416 7.64928 0.000888824C6.64578 -0.0146503 5.64961 0.174171 4.7214 0.555864C3.7932 0.937555 2.95237 1.50414 2.25009 2.22112C0.824199 3.66512 0.0171309 5.60792 0.000173569 7.63721C-0.0167847 9.6665 0.757702 11.6225 2.15926 13.0901L6.76119 17.8535C6.85381 17.9507 6.96489 18.0285 7.08792 18.0822C7.21096 18.1359 7.34348 18.1645 7.47772 18.1664C7.61176 18.1694 7.74493 18.144 7.86844 18.0918C7.99195 18.0396 8.10299 17.9619 8.19424 17.8636L12.8769 13.1709C14.3042 11.7282 15.1131 9.78613 15.1319 7.75684C15.1507 5.72755 14.3781 3.77078 12.9778 2.30185C12.2882 1.58211 11.4614 1.00771 10.5462 0.612532ZM7.48983 10.3152C8.84017 10.3152 9.93483 9.22058 9.93483 7.87024C9.93483 6.51991 8.84017 5.42524 7.48983 5.42524C6.1395 5.42524 5.04483 6.5199 5.04483 7.87024C5.04483 9.22058 6.1395 10.3152 7.48983 10.3152Z" fill-rule="evenodd"  fill="#4C4F4D" >
</path>
</svg>
