<svg xmlns="http://www.w3.org/2000/svg" xmlns:xlink="http://www.w3.org/1999/xlink" width="10" height="18" viewBox="0 0 10 18" fill="none">
<path d="M9.59583 15.7263C9.83051 15.9835 9.96089 16.3218 9.94785 16.6737C9.94785 17.0256 9.81747 17.3504 9.56975 17.6075C9.33507 17.8512 9.00913 18 8.67014 18C8.33116 18 8.00521 17.8782 7.7575 17.6346L0.378096 9.97447C0.260756 9.85266 0.169492 9.70379 0.104302 9.54138C0.0391134 9.37898 0 9.20304 0 9.0271C0 8.85116 0.0391134 8.67522 0.104302 8.49928C0.169492 8.33687 0.260756 8.188 0.378096 8.0662L7.7575 0.406046C7.87484 0.284241 8.01825 0.17597 8.17471 0.108301C8.3442 0.040632 8.51369 3.05176e-05 8.68318 3.05176e-05C8.85267 3.05176e-05 9.0352 0.0270982 9.19166 0.0947674C9.34811 0.162437 9.49153 0.270707 9.6219 0.392512C9.73924 0.514316 9.83051 0.676722 9.8957 0.839128C9.97392 1.00153 10 1.17747 10 1.36695C10 1.54289 9.96089 1.71883 9.8957 1.88123C9.83051 2.04364 9.72621 2.19251 9.59583 2.32785L3.14211 9.0271L4.36767 10.2857L9.59583 15.7263Z"   fill="#181725" >
</path>
</svg>
