<svg xmlns="http://www.w3.org/2000/svg" xmlns:xlink="http://www.w3.org/1999/xlink" width="17" height="2.8380126953125" viewBox="0 0 17 2.8380126953125" fill="none">
<path     fill="#B3B3B3"  d="M17 1.416C17 1.791 16.856 2.155 16.586 2.418C16.323 2.687 15.96 2.838 15.584 2.838L9.919 2.838L7.081 2.838L1.416 2.838C1.04 2.838 0.677 2.687 0.414 2.418C0.15 2.155 0 1.791 0 1.416C0 1.04 0.15 0.683 0.414 0.413C0.677 0.15 1.04 0 1.416 0L7.081 0L9.919 0L15.584 0C15.96 0 16.323 0.15 16.586 0.413C16.856 0.683 17 1.04 17 1.416Z">
</path>
</svg>
