<svg xmlns="http://www.w3.org/2000/svg" xmlns:xlink="http://www.w3.org/1999/xlink" width="17" height="17" viewBox="0 0 17 17" fill="none">
<path d="M17 8.5C17 8.87583 16.8559 9.23913 16.5864 9.50221C16.3233 9.77155 15.9598 9.92189 15.5839 9.92189L9.91928 9.92189L9.91928 15.5844C9.91928 15.9602 9.76889 16.3235 9.49945 16.5866C9.23627 16.8497 8.8791 17 8.50313 17C8.12716 17 7.76373 16.8497 7.50055 16.5866C7.23111 16.3235 7.08072 15.9602 7.08072 15.5844L7.08072 9.92189L1.41614 9.92189C1.04018 9.92189 0.676742 9.77155 0.413564 9.50221C0.150387 9.23913 0 8.87583 0 8.5C0 8.12417 0.150387 7.76713 0.413564 7.49779C0.676742 7.23471 1.04018 7.08438 1.41614 7.08438L7.08072 7.08438L7.08072 1.42189C7.08072 1.04606 7.23111 0.682756 7.50055 0.419676C7.76373 0.150332 8.12716 0 8.50313 0C8.8791 0 9.23627 0.150332 9.49945 0.419676C9.76889 0.682756 9.91928 1.04606 9.91928 1.42189L9.91928 7.08438L15.5839 7.08438C15.9598 7.08438 16.3233 7.23471 16.5864 7.49779C16.8559 7.76713 17 8.12417 17 8.5Z"   fill="#53B175" >
</path>
</svg>
