<svg xmlns="http://www.w3.org/2000/svg" xmlns:xlink="http://www.w3.org/1999/xlink" width="18.4583740234375" height="18.459716796875" viewBox="0 0 18.4583740234375 18.459716796875" fill="none">
<path     fill="#181725"  d="M10.5476 4.50257L10.5476 11.9413C10.5476 12.291 10.4087 12.6263 10.1615 12.8736C9.9142 13.1208 9.57885 13.2597 9.22918 13.2597C8.8795 13.2597 8.54415 13.1208 8.29689 12.8736C8.04963 12.6263 7.91072 12.291 7.91072 11.9413L7.91072 4.50257L6.43274 5.98187C6.18517 6.22927 5.84946 6.36818 5.49946 6.36806C5.14947 6.36794 4.81386 6.22878 4.56646 5.98121C4.31907 5.73364 4.18015 5.39793 4.18028 5.04794C4.1804 4.69795 4.31955 4.36234 4.56712 4.11494L8.29703 0.387671C8.41919 0.264811 8.56443 0.167312 8.7244 0.100781C8.88437 0.0342503 9.05592 -4.57431e-17 9.22918 0C9.40243 4.11687e-17 9.57398 0.0342503 9.73395 0.100781C9.89392 0.167312 10.0392 0.264811 10.1613 0.387671L13.8912 4.11626C14.0137 4.23884 14.1109 4.38435 14.1771 4.54449C14.2434 4.70462 14.2775 4.87623 14.2774 5.04953C14.2774 5.22283 14.2432 5.39442 14.1768 5.5545C14.1104 5.71459 14.0132 5.86003 13.8906 5.98253C13.768 6.10503 13.6225 6.20218 13.4623 6.26844C13.3022 6.33471 13.1306 6.36878 12.9573 6.36872C12.784 6.36866 12.6124 6.33446 12.4523 6.26809C12.2922 6.20171 12.1468 6.10445 12.0243 5.98187L10.5476 4.50257ZM3.95536 7.91209C4.30504 7.91209 4.64039 8.05099 4.88765 8.29825C5.13491 8.54551 5.27381 8.88087 5.27381 9.23054C5.27381 9.58022 5.13491 9.91557 4.88765 10.1628C4.64039 10.4101 4.30504 10.549 3.95536 10.549L2.63691 10.549L2.63691 15.8228L15.8214 15.8228L15.8214 10.549L14.503 10.549C14.1533 10.549 13.818 10.4101 13.5707 10.1628C13.3234 9.91557 13.1845 9.58022 13.1845 9.23054C13.1845 8.88087 13.3234 8.54551 13.5707 8.29825C13.818 8.05099 14.1533 7.91209 14.503 7.91209L15.8214 7.91209C16.5208 7.91209 17.1915 8.1899 17.686 8.68442C18.1805 9.17894 18.4584 9.84964 18.4584 10.549L18.4584 15.8228C18.4584 16.5222 18.1805 17.1929 17.686 17.6874C17.1915 18.1819 16.5208 18.4597 15.8214 18.4597L2.63691 18.4597C1.93756 18.4597 1.26685 18.1819 0.772332 17.6874C0.277816 17.1929 3.84242e-16 16.5222 0 15.8228L0 10.549C1.28081e-16 9.84964 0.277816 9.17894 0.772332 8.68442C1.26685 8.1899 1.93756 7.91209 2.63691 7.91209L3.95536 7.91209Z">
</path>
<path fill-rule="evenodd"  fill="rgba(255, 255, 255, 1)"  d="M10.5476 4.50257L10.5476 11.9413C10.5476 12.291 10.4087 12.6263 10.1615 12.8736C9.9142 13.1208 9.57885 13.2597 9.22918 13.2597C8.8795 13.2597 8.54415 13.1208 8.29689 12.8736C8.04963 12.6263 7.91072 12.291 7.91072 11.9413L7.91072 4.50257L7.61072 4.80283L6.43274 5.98187C6.18517 6.22927 5.84946 6.36818 5.49946 6.36806C5.14947 6.36794 4.81386 6.22878 4.56646 5.98121C4.31907 5.73364 4.18015 5.39793 4.18028 5.04794C4.1804 4.69795 4.31955 4.36234 4.56712 4.11494L8.29703 0.387671C8.41919 0.264811 8.56443 0.167312 8.7244 0.100781C8.88437 0.0342503 9.05592 0 9.22918 0C9.40243 0 9.57398 0.0342503 9.73395 0.100781C9.89392 0.167312 10.0392 0.264811 10.1613 0.387671L13.8912 4.11626C14.0137 4.23884 14.1109 4.38435 14.1771 4.54449C14.2434 4.70462 14.2775 4.87623 14.2774 5.04953C14.2774 5.22283 14.2432 5.39442 14.1768 5.5545C14.1104 5.71459 14.0132 5.86003 13.8906 5.98253C13.768 6.10503 13.6225 6.20218 13.4623 6.26844C13.3022 6.33471 13.1306 6.36878 12.9573 6.36872C12.784 6.36866 12.6124 6.33446 12.4523 6.26809C12.2922 6.20171 12.1468 6.10445 12.0243 5.98187L10.8476 4.8031L10.5476 4.50257ZM12.2365 5.76981L10.2476 3.77739L10.2476 11.9413Q10.2476 12.3631 9.94933 12.6614Q9.65103 12.9597 9.22918 12.9597Q8.80732 12.9597 8.50902 12.6614Q8.21072 12.3631 8.21072 11.9413L8.21072 3.77784L6.22051 5.76983Q5.92192 6.06821 5.49957 6.06806Q5.07722 6.06791 4.77867 5.76915Q4.48013 5.4704 4.48028 5.04805Q4.48043 4.62569 4.77918 4.32715L8.50909 0.599878Q8.65258 0.45556 8.8396 0.377781Q9.02662 0.3 9.22918 0.3Q9.43173 0.3 9.61875 0.377781Q9.80577 0.45556 9.94858 0.599195L13.6791 4.32843Q13.8224 4.47178 13.8999 4.65919Q13.9775 4.8466 13.9774 5.04942Q13.9773 5.25225 13.8997 5.4396Q13.822 5.62696 13.6785 5.77032Q13.535 5.91369 13.3476 5.99124Q13.1602 6.06879 12.9574 6.06872Q12.7546 6.06865 12.5672 5.99096Q12.3799 5.91328 12.2365 5.76981ZM2.93691 10.549L3.95536 10.549C4.30504 10.549 4.64039 10.4101 4.88765 10.1628C5.13491 9.91557 5.27381 9.58022 5.27381 9.23054C5.27381 8.88087 5.13491 8.54551 4.88765 8.29825C4.64039 8.05099 4.30504 7.91209 3.95536 7.91209L2.63691 7.91209C1.93756 7.91209 1.26685 8.1899 0.772332 8.68442C0.277816 9.17894 0 9.84964 0 10.549L0 15.8228C0 16.5222 0.277816 17.1929 0.772332 17.6874C1.26685 18.1819 1.93756 18.4597 2.63691 18.4597L15.8214 18.4597C16.5208 18.4597 17.1915 18.1819 17.686 17.6874C18.1805 17.1929 18.4584 16.5222 18.4584 15.8228L18.4584 10.549C18.4584 9.84964 18.1805 9.17894 17.686 8.68442C17.1915 8.1899 16.5208 7.91209 15.8214 7.91209L14.503 7.91209C14.1533 7.91209 13.818 8.05099 13.5707 8.29825C13.3234 8.54551 13.1845 8.88087 13.1845 9.23054C13.1845 9.58022 13.3234 9.91557 13.5707 10.1628C13.818 10.4101 14.1533 10.549 14.503 10.549L15.8214 10.549L15.8214 15.8228L2.63691 15.8228L2.63691 10.549L2.93691 10.549ZM2.63691 8.21209L3.95536 8.21209Q4.37722 8.21209 4.67552 8.51039Q4.97381 8.80868 4.97381 9.23054Q4.97381 9.6524 4.67552 9.9507Q4.37722 10.249 3.95536 10.249L2.33691 10.249L2.33691 16.1228L16.1214 16.1228L16.1214 10.249L14.503 10.249Q14.0811 10.249 13.7828 9.9507Q13.4845 9.6524 13.4845 9.23054Q13.4845 8.80868 13.7828 8.51038Q14.0811 8.21209 14.503 8.21209L15.8214 8.21209Q16.2863 8.21209 16.7157 8.38997Q17.1452 8.56786 17.4739 8.89655Q17.8026 9.22524 17.9805 9.6547Q18.1584 10.0842 18.1584 10.549L18.1584 15.8228Q18.1584 16.2876 17.9805 16.7171Q17.8026 17.1466 17.4739 17.4753Q17.1452 17.8039 16.7157 17.9818Q16.2863 18.1597 15.8214 18.1597L2.63691 18.1597Q2.17207 18.1597 1.74261 17.9818Q1.31315 17.8039 0.984464 17.4753Q0.655774 17.1466 0.477886 16.7171Q0.3 16.2876 0.3 15.8228L0.3 10.549Q0.3 10.0842 0.477886 9.6547Q0.655773 9.22524 0.984464 8.89655Q1.31316 8.56786 1.74261 8.38997Q2.17207 8.21209 2.63691 8.21209Z">
</path>
</svg>
